# xmcd
# 
# Track frame offsets:
#     150
#     19244
#     44539
#     70576
# 
# Disc length: 1226
# 
# Revision: 2
# Processed by: cddbd v1.5.2PL0 Copyright (c) Steve Scherf et al.
# Submitted via: fre:ac v1.0.17
# 
DISCID=2e04c804
DTITLE=堂本　剛 - 瞬き
DYEAR=0
DGENRE=
TTITLE0=瞬き
TTITLE1=Clap Your Mind
TTITLE2=Tearful  melody
TTITLE3=Welcome to shamanippon
EXTD=
EXTT0=
EXTT1=
EXTT2=
EXTT3=
PLAYORDER=
